<?xml version="1.0" encoding="UTF-8" standalone="no"?>
<!-- Created with Inkscape (http://www.inkscape.org/) -->

<svg id="svg5345" version="1.1" viewBox="0 0 26 26" height="26" width="26" sodipodi:docname="edit.svg" inkscape:version="1.2.2 (732a01da63, 2022-12-09)" inkscape:export-filename="edit.svg" inkscape:export-xdpi="103.75" inkscape:export-ydpi="103.75" xmlns:inkscape="http://www.inkscape.org/namespaces/inkscape" xmlns:sodipodi="http://sodipodi.sourceforge.net/DTD/sodipodi-0.dtd" xmlns="http://www.w3.org/2000/svg" xmlns:svg="http://www.w3.org/2000/svg">
  <sodipodi:namedview id="namedview9" pagecolor="#505050" bordercolor="#eeeeee" borderopacity="1" inkscape:showpageshadow="0" inkscape:pageopacity="0" inkscape:pagecheckerboard="0" inkscape:deskcolor="#505050" showgrid="true" inkscape:zoom="25.368" inkscape:cx="11.865" inkscape:cy="14.546" inkscape:window-width="1920" inkscape:window-height="1009" inkscape:window-x="1912" inkscape:window-y="-8" inkscape:window-maximized="1" inkscape:current-layer="svg5345">
    <inkscape:grid type="xygrid" id="grid238" />
  </sodipodi:namedview>
  <defs id="defs5342" />
  <path d="M 12.533,2.1345 H 5.4556 c -2.8309,0 -4.2463,1.3856 -4.2463,4.1571 V 20.149 c 0,2.771 1.4154,4.157 4.2463,4.157 H 19.61 c 2.831,0 4.246,-1.386 4.246,-4.157 V 13.22" style="fill:none;stroke:#ffffff;stroke-width:0.417987;stroke-linecap:round;stroke-linejoin:round;stroke-dasharray:none;stroke-opacity:1" id="path2" />
  <g id="g28509" style="stroke:#ffffff;stroke-width:3.5;stroke-dasharray:none;stroke-opacity:1" transform="matrix(0.12074,0,0,0.11813,0.96553,0.94786)">
    <path style="fill:none;stroke:#ffffff;stroke-width:3.5;stroke-linecap:butt;stroke-linejoin:miter;stroke-dasharray:none;stroke-opacity:1" d="M 75.604,98.179 167.16,4.5865 c 0,0 5.13,-5.35428 11.34,-0.1006 6.5,5.4946 16.78,15.3971 16.78,15.3971 0,0 5.18,5.007 0.82,10.739 -25.44,26.333 -62.23,63.159 -91.51,93.088 -11.489,3.28 -22.635,6.4 -30.549,8.98 -11.209,4.5 -7.981,4.67 -5.66,-5.05 z" id="path24723" />
    <path style="fill:none;stroke:#ffffff;stroke-width:3.5;stroke-linecap:round;stroke-linejoin:miter;stroke-dasharray:none;stroke-opacity:1" d="M 188.09,38.039 C 159.26,12.651 159.26,12.651 159.26,12.651" id="path24745" />
  </g>
</svg>
