<?xml version="1.0" encoding="UTF-8" standalone="no"?>
<!-- Created with Inkscape (http://www.inkscape.org/) -->

<svg inkscape:export-ydpi="101.2" inkscape:export-xdpi="101.2" inkscape:export-filename="edit.svg" inkscape:version="1.2.2 (732a01da63, 2022-12-09)" sodipodi:docname="editInk.svg" id="svg5345" version="1.1" viewBox="0 0 200 200" height="200" width="200" xmlns:inkscape="http://www.inkscape.org/namespaces/inkscape" xmlns:sodipodi="http://sodipodi.sourceforge.net/DTD/sodipodi-0.dtd" xmlns="http://www.w3.org/2000/svg" xmlns:svg="http://www.w3.org/2000/svg">
  <sodipodi:namedview id="namedview5347" pagecolor="#505050" bordercolor="#eeeeee" borderopacity="1" inkscape:showpageshadow="0" inkscape:pageopacity="0" inkscape:pagecheckerboard="false" inkscape:deskcolor="#505050" inkscape:document-units="px" showgrid="true" showguides="false" inkscape:zoom="12.116" inkscape:cx="30.787" inkscape:cy="28.311" inkscape:window-width="1920" inkscape:window-height="1009" inkscape:window-x="1912" inkscape:window-y="-8" inkscape:window-maximized="1" inkscape:current-layer="layer1" guidecolor="#00abe5" guideopacity="0.6">
    <sodipodi:guide position="0,200" orientation="0,200" id="guide22166" inkscape:locked="false" />
    <sodipodi:guide position="200,200" orientation="200,0" id="guide22168" inkscape:locked="false" />
    <sodipodi:guide position="200,0" orientation="0,-200" id="guide22170" inkscape:locked="false" />
    <sodipodi:guide position="0,0" orientation="-200,0" id="guide22172" inkscape:locked="false" />
    <inkscape:grid type="xygrid" id="grid22174" spacingx="2" spacingy="2" empspacing="0" originx="2.7755576e-17" />
  </sodipodi:namedview>
  <defs id="defs5342" />
  <g inkscape:label="Layer 1" inkscape:groupmode="layer" id="layer1">
    <path d="M 21.039,6.8811 H 13.982 C 11.161,6.8811 9.7487,8.3463 9.7487,11.277 V 25.931 C 9.7487,28.862 11.161,30.327 13.982,30.327 H 28.093 C 30.916,30.327 32.328,28.862 32.328,25.931 V 18.604" style="fill:none;stroke:#ffffff;stroke-width:0.42918;stroke-linecap:round;stroke-linejoin:round;stroke-dasharray:none;stroke-opacity:1" id="path2" sodipodi:nodetypes="cssssssc" />
    <g id="g28509" style="stroke:#ffffff;stroke-width:3.5;stroke-dasharray:none;stroke-opacity:1" transform="matrix(0.12037,0,0,0.12491,9.5057,5.6264)">
      <path style="fill:none;stroke:#ffffff;stroke-width:3.5;stroke-linecap:butt;stroke-linejoin:miter;stroke-dasharray:none;stroke-opacity:1" d="M 75.604,98.179 167.16,4.5865 C 167.16,4.5865 172.29,-0.76778 178.5,4.4859 185,9.9805 195.28,19.883 195.28,19.883 195.28,19.883 200.46,24.89 196.1,30.622 170.66,56.955 133.87,93.781 104.59,123.71 93.101,126.99 81.955,130.11 74.041,132.69 62.832,137.19 66.06,137.36 68.381,127.64 Z" id="path24723" sodipodi:nodetypes="ccscccccc" />
      <path style="fill:none;stroke:#ffffff;stroke-width:3.5;stroke-linecap:round;stroke-linejoin:miter;stroke-dasharray:none;stroke-opacity:1" d="M 188.09,38.039 C 159.26,12.651 159.26,12.651 159.26,12.651" id="path24745" />
    </g>
  </g>
</svg>
